<svg aria-hidden="true" style="position: absolute; width: 0; height: 0; overflow: hidden;" version="1.1" xmlns="http://www.w3.org/2000/svg" xmlns:xlink="http://www.w3.org/1999/xlink">
<defs>

<symbol id="icon-number" viewBox="0 0 26 32">
<path  d="M20.949 18.487l-2.614-0.28c-0.071-0.008-0.154-0.013-0.237-0.014h-0c-0.004-0-0.009-0-0.014-0-0.556 0-1.062 0.215-1.439 0.566l0.001-0.001-1.893 1.774c-2.936-1.42-5.27-3.607-6.744-6.278l-0.040-0.081 1.906-1.786c0.369-0.34 0.599-0.826 0.599-1.365 0-0.080-0.005-0.158-0.015-0.235l0.001 0.009 0.001 0.010-0.298-2.432c-0.122-0.966-0.992-1.708-2.046-1.708h-1.783c-1.164 0-2.13 0.906-2.058 1.997 0.545 8.24 7.574 14.821 16.354 15.333 1.164 0.067 2.13-0.84 2.13-1.93v-1.68c0-0.982-0.788-1.79-1.802-1.899l-0.010-0.002 0.001 0.002z"></path>
</symbol>

<symbol id="icon-maill-black" viewBox="0 0 26 32">
<path d="M21.338 8h-17.067c-1.173 0-2.122 0.9-2.122 2l-0.011 12c0 1.1 0.96 2 2.133 2h17.067c1.173 0 2.133-0.9 2.133-2v-12c0-1.1-0.96-2-2.133-2zM20.911 12.251l-7.54 4.418c-0.161 0.095-0.355 0.15-0.562 0.15-0.002 0-0.003 0-0.005 0h0c-0.21 0-0.406-0.056-0.57-0.153l0.004 0.002-7.54-4.418c-0.264-0.142-0.442-0.416-0.446-0.731v-0.001c0-0.469 0.406-0.849 0.906-0.849 0.186 0 0.36 0.053 0.502 0.142l7.145 4.187 7.146-4.191c0.141-0.088 0.312-0.141 0.496-0.141 0.001 0 0.002 0 0.003 0h-0c0.5 0 0.906 0.38 0.906 0.849 0 0.31-0.177 0.581-0.442 0.729l-0.004 0.002 0.002 0.003z"></path>
</symbol>

<symbol id="icon-telegramm-black" viewBox="0 0 26 32">
<path d="M25.605 8l-25.6 9.438 8.182 1.986 12.618-7.754-9.6 8.486v4.622l4.588-3.509 5.814 1.411 3.998-14.68z"></path>
</symbol>

<symbol id="icon-instagram-black" viewBox="0 0 26 32">
<path  d="M25.579 10.726c-0.059-1.36-0.28-2.296-0.595-3.106-0.339-0.89-0.843-1.648-1.479-2.271l-0.001-0.001c-0.624-0.633-1.379-1.134-2.223-1.459l-0.043-0.015c-0.816-0.315-1.744-0.536-3.104-0.595-1.373-0.064-1.81-0.080-5.282-0.080-3.477 0-3.912 0.016-5.277 0.075-1.36 0.059-2.294 0.28-3.104 0.595-0.89 0.339-1.648 0.843-2.271 1.479l-0.001 0.001c-0.633 0.624-1.135 1.379-1.461 2.223l-0.015 0.043c-0.315 0.816-0.534 1.744-0.595 3.104-0.064 1.371-0.080 1.808-0.080 5.282 0 3.477 0.016 3.912 0.075 5.277 0.059 1.36 0.28 2.296 0.595 3.106 0.341 0.888 0.844 1.646 1.479 2.27l0.001 0.001c0.64 0.65 1.416 1.155 2.266 1.475 0.816 0.315 1.744 0.536 3.106 0.595 1.365 0.061 1.8 0.075 5.277 0.075 3.475 0 3.91-0.016 5.275-0.075 1.36-0.059 2.296-0.28 3.106-0.595 1.725-0.68 3.066-2.020 3.73-3.701l0.015-0.044c0.315-0.816 0.536-1.744 0.595-3.106 0.061-1.365 0.075-1.8 0.075-5.277 0-3.475-0.006-3.91-0.066-5.275zM23.275 21.178c-0.056 1.251-0.266 1.926-0.442 2.376-0.441 1.12-1.31 1.991-2.402 2.422l-0.029 0.010c-0.45 0.174-1.13 0.384-2.374 0.438-1.35 0.061-1.755 0.075-5.171 0.075s-3.826-0.016-5.171-0.075c-1.251-0.054-1.926-0.264-2.376-0.44-0.577-0.215-1.068-0.541-1.469-0.954l-0.001-0.001c-0.413-0.403-0.739-0.894-0.946-1.443l-0.009-0.027c-0.176-0.45-0.384-1.13-0.44-2.374-0.059-1.35-0.075-1.757-0.075-5.171 0-3.416 0.016-3.826 0.075-5.171 0.056-1.251 0.266-1.926 0.44-2.376 0.216-0.577 0.543-1.069 0.959-1.469l0.001-0.001c0.403-0.414 0.895-0.739 1.445-0.946l0.027-0.009c0.448-0.176 1.13-0.384 2.374-0.44 1.35-0.059 1.755-0.075 5.171-0.075 3.421 0 3.824 0.016 5.171 0.075 1.25 0.056 1.925 0.266 2.374 0.44 0.577 0.215 1.069 0.541 1.471 0.954l0.001 0.001c0.413 0.404 0.738 0.895 0.945 1.445l0.009 0.027c0.176 0.448 0.386 1.128 0.44 2.374 0.061 1.35 0.075 1.755 0.075 5.171s-0.014 3.816-0.074 5.165z"></path>
<path  d="M12.853 9.426c-3.57 0.081-6.433 2.994-6.433 6.576s2.863 6.495 6.425 6.576l0.008 0c3.57-0.081 6.433-2.994 6.433-6.576s-2.863-6.495-6.425-6.576l-0.008-0zM12.853 20.269c-2.357 0-4.267-1.91-4.267-4.267s1.911-4.267 4.267-4.267v0c2.357 0 4.267 1.911 4.267 4.267s-1.911 4.267-4.267 4.267v0zM21.224 9.166c0 0.848-0.688 1.536-1.536 1.536s-1.536-0.688-1.536-1.536v0c0-0.848 0.688-1.536 1.536-1.536s1.536 0.688 1.536 1.536v0z"></path>
</symbol>

<symbol id="icon-Iconthree" viewBox="0 0 32 32">
<path fill="#f3f0ea" style="fill: var(--color2, #f3f0ea)" d="M16 0c8.837 0 16 7.163 16 16s-7.163 16-16 16c-8.837 0-16-7.163-16-16s7.163-16 16-16z"></path>
<path fill="#71a894" style="fill: var(--color3, #71a894)" d="M7.247 6.949c-2.337 2.32-3.784 5.534-3.784 9.086 0 7.069 5.731 12.8 12.8 12.8 3.552 0 6.766-1.447 9.085-3.783l0.001-0.001-18.102-18.102z"></path>
<path fill="#303031" style="fill: var(--color4, #303031)" d="M9.962 22.336c-3.499-3.499-3.499-9.172 0-12.671s9.172-3.499 12.671 0c3.499 3.499 3.499 9.172 0 12.671s-9.172 3.499-12.671 0z"></path>
<path fill="#71a894" style="fill: var(--color3, #71a894)" opacity="0.5" d="M9.962 9.664c-3.499 3.499-3.499 9.172 0 12.672s9.172 3.499 12.671 0l-12.671-12.672z"></path>
</symbol>

<symbol id="icon-Icontwo" viewBox="0 0 32 32">
<path fill="#f3f0ea" style="fill: var(--color2, #f3f0ea)" d="M16 0c8.837 0 16 7.163 16 16s-7.163 16-16 16c-8.837 0-16-7.163-16-16s7.163-16 16-16z"></path>
<path fill="#71a894" style="fill: var(--color3, #71a894)" opacity="0.2" d="M28.8 16c0 7.069-5.731 12.8-12.8 12.8s-12.8-5.731-12.8-12.8c0-7.069 5.731-12.8 12.8-12.8s12.8 5.731 12.8 12.8z"></path>
<path fill="#71a894" style="fill: var(--color3, #71a894)" opacity="0.4" d="M25.6 16c0 5.302-4.298 9.6-9.6 9.6s-9.6-4.298-9.6-9.6c0-5.302 4.298-9.6 9.6-9.6s9.6 4.298 9.6 9.6z"></path>
<path fill="#71a894" style="fill: var(--color3, #71a894)" opacity="0.6" d="M22.8 16c0 3.756-3.044 6.8-6.8 6.8s-6.8-3.044-6.8-6.8c0-3.756 3.044-6.8 6.8-6.8s6.8 3.044 6.8 6.8z"></path>
<path fill="#71a894" style="fill: var(--color3, #71a894)" d="M19.6 16c0 1.988-1.612 3.6-3.6 3.6s-3.6-1.612-3.6-3.6c0-1.988 1.612-3.6 3.6-3.6s3.6 1.612 3.6 3.6z"></path>
</symbol>

<symbol id="icon-Iconone" viewBox="0 0 32 32">
<path fill="#f3f0ea" style="fill: var(--color2, #f3f0ea)" d="M16 0c8.837 0 16 7.163 16 16s-7.163 16-16 16c-8.837 0-16-7.163-16-16s7.163-16 16-16z"></path>
<path fill="#66645e" style="fill: var(--color5, #66645e)" d="M35.2 16c0 6.186-5.014 11.2-11.2 11.2s-11.2-5.014-11.2-11.2c0-6.186 5.014-11.2 11.2-11.2s11.2 5.014 11.2 11.2z"></path>
<path fill="#807e76" style="fill: var(--color6, #807e76)" d="M28.8 16c0 2.651-2.149 4.8-4.8 4.8s-4.8-2.149-4.8-4.8c0-2.651 2.149-4.8 4.8-4.8s4.8 2.149 4.8 4.8z"></path>
<path fill="#71a894" style="fill: var(--color3, #71a894)" d="M21.2 16l-21.6 12.471v-24.942l21.6 12.471z"></path>
<path fill="#81bfa8" style="fill: var(--color7, #81bfa8)" d="M24.8 16l-14.4 8.314v-16.628l14.4 8.314z"></path>
</symbol>

<symbol id="icon-black-person-three" viewBox="0 0 38 32">
<path fill="#3d4845" style="fill: var(--color8, #3d4845)" d="M27.933 22.048c0 0 0.001 0 0.001 0 2.324 0 4.208-1.884 4.208-4.208v-0c0-2.324-1.884-4.208-4.208-4.208-0.001 0-0.002 0-0.002 0h0c-0 0-0.001 0-0.002 0-2.324 0-4.208 1.884-4.208 4.208 0 0.581 0.118 1.134 0.331 1.638l-0.010-0.028c0.649 1.537 2.144 2.597 3.886 2.597 0.001 0 0.002 0 0.003 0h-0zM27.933 24.151c-2.809 0-8.415 1.41-8.415 4.208v1.052c0.001 0.58 0.472 1.051 1.052 1.052h14.726c0.58-0.002 1.050-0.472 1.052-1.052v-1.052c0-2.798-5.607-4.208-8.415-4.208z"></path>
<path fill="#575656" style="fill: var(--color1, #575656)" d="M18.911 9.583c0.012 0 0.025 0 0.039 0 2.324 0 4.208-1.884 4.208-4.208s-1.884-4.208-4.208-4.208c-0.014 0-0.027 0-0.041 0l0.002-0c-2.324 0-4.208 1.884-4.208 4.208s1.884 4.208 4.208 4.208v0zM18.911 11.687c-2.809 0-8.415 1.41-8.415 4.208v1.052c0.001 0.58 0.472 1.051 1.052 1.052h14.726c0.58-0.002 1.050-0.472 1.052-1.052v-1.052c0-2.798-5.607-4.208-8.415-4.208z"></path>
<path fill="#71a894" style="fill: var(--color3, #71a894)" d="M9.79 22.048c0 0 0 0 0.001 0 2.324 0 4.208-1.884 4.209-4.208v-0c0-2.324-1.884-4.208-4.208-4.208-0.001 0-0.001 0-0.002 0h0c-2.324 0-4.208 1.884-4.208 4.208 0 1.743 1.059 3.238 2.569 3.877l0.028 0.010c0.511 0.211 1.058 0.32 1.611 0.32zM9.79 24.151c-2.809 0-8.415 1.41-8.415 4.208v1.052c0.001 0.58 0.472 1.051 1.052 1.052h14.726c0.58-0.002 1.050-0.472 1.052-1.052v-1.052c0-2.798-5.607-4.208-8.415-4.208z"></path>
</symbol>

<symbol id="icon-black-person-two" viewBox="0 0 38 32">
<path fill="#71a894" style="fill: var(--color3, #71a894)" d="M27.933 16.001c0 0 0.001 0 0.001 0 2.324 0 4.208-1.884 4.208-4.208v-0c0-2.324-1.884-4.208-4.208-4.208-0.001 0-0.002 0-0.002 0h0c-2.324 0-4.208 1.884-4.208 4.208s1.884 4.208 4.208 4.208v0zM27.933 18.104c-2.809 0-8.415 1.41-8.415 4.208v1.052c0.002 0.58 0.472 1.050 1.052 1.052h14.726c0.58-0.002 1.050-0.472 1.052-1.052v-1.052c0-2.798-5.607-4.208-8.415-4.208z"></path>
<path fill="#575656" style="fill: var(--color1, #575656)" d="M9.79 16.001c2.323-0.001 4.206-1.884 4.206-4.208s-1.884-4.208-4.208-4.208c-0.581 0-1.134 0.118-1.637 0.33l0.028-0.010c-1.538 0.649-2.598 2.144-2.598 3.888 0 2.324 1.884 4.208 4.208 4.208 0.001 0 0.001 0 0.002 0h-0zM9.79 18.104c-2.809 0-8.415 1.41-8.415 4.208v1.052c0.002 0.58 0.472 1.050 1.052 1.052h14.726c0.58-0.002 1.049-0.472 1.052-1.052v-1.052c0-2.798-5.607-4.208-8.415-4.208z"></path>
</symbol>

<symbol id="icon-black-person-one" viewBox="0 0 38 32">
<path fill="#575656" style="fill: var(--color1, #575656)" d="M18.962 16.051c2.324 0 4.208-1.884 4.208-4.208s-1.884-4.208-4.208-4.208v0c-2.324 0-4.208 1.884-4.208 4.208s1.884 4.208 4.208 4.208v0zM18.962 18.155c-2.809 0-8.415 1.41-8.415 4.208v1.052c0 0.578 0.473 1.052 1.052 1.052h14.727c0.58-0.002 1.049-0.472 1.052-1.052v-1.052c0-2.798-5.607-4.208-8.415-4.208z"></path>
</symbol>

<symbol id="icon-logow40" viewBox="0 0 32 32">
<path fill="#fdfdfd" style="fill: var(--color1, #fdfdfd)" d="M0 23.104v-0.895l7.075-3.541h-7.075v-1.070h14.402v6.398h-1.067v-2.431c0-1.34-0.006-2.434-0.009-2.434l-9.742 4.865h-1.191l10.65-5.331h-2.374l-10.668 5.337zM17.598 20.8v-3.199h14.402v1.067h-7.075l7.075 3.541v0.296c0.001 0.029 0.002 0.062 0.002 0.096 0 0.070-0.003 0.14-0.008 0.209l0.001-0.009-8.276-4.133h-2.377l10.653 5.328-3.571 0.003-9.745-4.865c-0.003 0-0.006 1.095-0.006 2.434v2.431h-1.073zM0 13.867v-0.532h7.075l-7.075-3.544v-0.293c0-0.163 0.003-0.296 0.009-0.296l8.276 4.133h2.374l-10.65-5.334h3.574l9.742 4.865c0.003 0 0.009-1.095 0.009-2.431v-2.434h1.064v6.401h-14.399zM17.598 11.2v-3.199h1.070v2.434c0 1.336 0 2.431 0.006 2.431l9.745-4.865h1.188l-10.65 5.331h2.377l10.665-5.331v1.79l-7.075 3.541h7.075v1.070h-14.399z"></path>
<path fill="#cb0000" style="fill: var(--color2, #cb0000)" d="M5.334 21.335l5.325-2.667h2.383l-10.65 5.328h-2.383zM14.402 20.8v-3.199h-14.402v-3.199h14.402v-6.401h3.196v6.401h14.399v3.196h-14.396v6.398h-3.202zM26.666 21.332l-5.322-2.661 1.185-0.003h1.188l8.279 4.139v0.596l-0.003 0.593zM4.139 11.263l-4.139-2.071v-1.191l10.65 5.328c0.003 0-0.529 0.006-1.185 0.003h-1.188zM24.283 10.668l5.325-2.667h2.386l-10.65 5.331h-2.386z"></path>
<path fill="#000065" style="fill: var(--color3, #000065)" d="M8.451 21.568c2.67-1.34 4.862-2.434 4.868-2.434 0.009 0 0.015 1.095 0.015 2.434v2.431h-9.742zM18.668 21.568c0-1.34 0.003-2.434 0.012-2.434 0.006 0 2.198 1.095 4.868 2.434l4.859 2.431h-9.739zM0 20.434v-1.766h7.075l-7.063 3.532c-0.006 0-0.012-0.795-0.012-1.766zM28.453 20.434l-3.529-1.766h7.076v1.766c0 0.971-0.006 1.766-0.012 1.766l-3.538-1.766zM0 11.566c0-0.968 0.006-1.766 0.012-1.766l7.063 3.532h-7.075zM28.453 11.566l3.538-1.766c0.006 0 0.009 0.795 0.009 1.766v1.769h-7.076zM8.451 10.435l-4.859-2.434h9.742v2.434c0 1.336-0.006 2.431-0.012 2.431-0.009 0-2.201-1.095-4.871-2.431zM18.668 10.435v-2.434h9.739l-4.856 2.434-4.871 2.431c-0.009 0-0.012-1.095-0.012-2.431z"></path>
</symbol>

<symbol id="icon-close" viewBox="0 0 32 32">
<path d="M32 3.224l-3.224-3.224-12.776 12.776-12.776-12.776-3.224 3.224 12.776 12.776-12.776 12.776 3.224 3.224 12.776-12.776 12.776 12.776 3.224-3.224-12.776-12.776 12.776-12.776z"></path>
</symbol>

<symbol id="icon-menu-hamburger" viewBox="0 0 47 32">
<path stroke-linejoin="round" stroke-linecap="round" stroke-miterlimit="4" stroke-width="4.3636" d="M1.961 29.166h42.98M1.961 15.623h42.98M1.961 2.080h42.98"></path>
</symbol>

</defs>
</svg>
